<mxfile host="app.diagrams.net" modified="2023-04-01T04:07:14.179Z" agent="Mozilla/5.0 (Windows NT 10.0; Win64; x64) AppleWebKit/537.36 (KHTML, like Gecko) Chrome/111.0.0.0 Safari/537.36" etag="oUYcMs_YUs3u1RIRrcIN" version="21.1.2" type="device">
  <diagram name="Page-1" id="efa7a0a1-bf9b-a30e-e6df-94a7791c09e9">
    <mxGraphModel dx="1035" dy="569" grid="1" gridSize="10" guides="1" tooltips="1" connect="1" arrows="1" fold="1" page="1" pageScale="1" pageWidth="826" pageHeight="1169" background="none" math="0" shadow="0">
      <root>
        <mxCell id="0" />
        <mxCell id="1" parent="0" />
        <mxCell id="TTnHmVoRhx6P__JuJ32r-118" style="edgeStyle=orthogonalEdgeStyle;rounded=0;orthogonalLoop=1;jettySize=auto;html=1;entryX=0;entryY=0.5;entryDx=0;entryDy=0;" edge="1" parent="1" source="TTnHmVoRhx6P__JuJ32r-114" target="TTnHmVoRhx6P__JuJ32r-115">
          <mxGeometry relative="1" as="geometry" />
        </mxCell>
        <mxCell id="TTnHmVoRhx6P__JuJ32r-114" value="PRODUCER" style="ellipse;whiteSpace=wrap;html=1;aspect=fixed;fillColor=#fff2cc;strokeColor=#d6b656;" vertex="1" parent="1">
          <mxGeometry x="100" y="450" width="80" height="80" as="geometry" />
        </mxCell>
        <mxCell id="TTnHmVoRhx6P__JuJ32r-125" style="edgeStyle=orthogonalEdgeStyle;rounded=0;orthogonalLoop=1;jettySize=auto;html=1;exitX=0.25;exitY=1;exitDx=0;exitDy=0;entryX=0.25;entryY=0;entryDx=0;entryDy=0;" edge="1" parent="1" source="TTnHmVoRhx6P__JuJ32r-115" target="TTnHmVoRhx6P__JuJ32r-116">
          <mxGeometry relative="1" as="geometry" />
        </mxCell>
        <mxCell id="TTnHmVoRhx6P__JuJ32r-137" style="edgeStyle=orthogonalEdgeStyle;rounded=0;orthogonalLoop=1;jettySize=auto;html=1;exitX=0.25;exitY=0;exitDx=0;exitDy=0;entryX=0.25;entryY=1;entryDx=0;entryDy=0;" edge="1" parent="1" source="TTnHmVoRhx6P__JuJ32r-115" target="TTnHmVoRhx6P__JuJ32r-120">
          <mxGeometry relative="1" as="geometry" />
        </mxCell>
        <mxCell id="TTnHmVoRhx6P__JuJ32r-115" value="REDIS" style="rounded=1;whiteSpace=wrap;html=1;fillColor=#f8cecc;strokeColor=#b85450;" vertex="1" parent="1">
          <mxGeometry x="370" y="460" width="120" height="60" as="geometry" />
        </mxCell>
        <mxCell id="TTnHmVoRhx6P__JuJ32r-126" style="edgeStyle=orthogonalEdgeStyle;rounded=0;orthogonalLoop=1;jettySize=auto;html=1;exitX=0.25;exitY=1;exitDx=0;exitDy=0;entryX=0.25;entryY=0;entryDx=0;entryDy=0;" edge="1" parent="1" source="TTnHmVoRhx6P__JuJ32r-116" target="TTnHmVoRhx6P__JuJ32r-117">
          <mxGeometry relative="1" as="geometry" />
        </mxCell>
        <mxCell id="TTnHmVoRhx6P__JuJ32r-116" value="CONSUMER" style="rounded=1;whiteSpace=wrap;html=1;fillColor=#f5f5f5;fontColor=#333333;strokeColor=#666666;" vertex="1" parent="1">
          <mxGeometry x="370" y="580" width="120" height="60" as="geometry" />
        </mxCell>
        <mxCell id="TTnHmVoRhx6P__JuJ32r-134" style="edgeStyle=orthogonalEdgeStyle;rounded=0;orthogonalLoop=1;jettySize=auto;html=1;exitX=1;exitY=0.25;exitDx=0;exitDy=0;entryX=0.5;entryY=0;entryDx=0;entryDy=0;entryPerimeter=0;" edge="1" parent="1" source="TTnHmVoRhx6P__JuJ32r-117" target="TTnHmVoRhx6P__JuJ32r-133">
          <mxGeometry relative="1" as="geometry">
            <mxPoint x="650" y="780" as="targetPoint" />
          </mxGeometry>
        </mxCell>
        <mxCell id="TTnHmVoRhx6P__JuJ32r-117" value="FAST API&lt;br&gt;CRUD" style="rounded=1;whiteSpace=wrap;html=1;fillColor=#d5e8d4;strokeColor=#82b366;" vertex="1" parent="1">
          <mxGeometry x="370" y="740" width="120" height="60" as="geometry" />
        </mxCell>
        <mxCell id="TTnHmVoRhx6P__JuJ32r-120" value="CONSUMER EVENTS" style="rounded=1;whiteSpace=wrap;html=1;fillColor=#f5f5f5;fontColor=#333333;strokeColor=#666666;" vertex="1" parent="1">
          <mxGeometry x="370" y="290" width="120" height="60" as="geometry" />
        </mxCell>
        <mxCell id="TTnHmVoRhx6P__JuJ32r-128" value="POST" style="text;html=1;align=center;verticalAlign=middle;resizable=0;points=[];autosize=1;strokeColor=none;fillColor=none;" vertex="1" parent="1">
          <mxGeometry x="340" y="690" width="60" height="30" as="geometry" />
        </mxCell>
        <mxCell id="TTnHmVoRhx6P__JuJ32r-129" value="localhost:8000/measure/id_dispositivo" style="text;html=1;align=center;verticalAlign=middle;resizable=0;points=[];autosize=1;strokeColor=none;fillColor=none;" vertex="1" parent="1">
          <mxGeometry x="170" y="710" width="230" height="30" as="geometry" />
        </mxCell>
        <mxCell id="TTnHmVoRhx6P__JuJ32r-130" value="localhost:6379" style="text;html=1;align=center;verticalAlign=middle;resizable=0;points=[];autosize=1;strokeColor=none;fillColor=none;" vertex="1" parent="1">
          <mxGeometry x="413" y="360" width="100" height="30" as="geometry" />
        </mxCell>
        <mxCell id="TTnHmVoRhx6P__JuJ32r-131" value="localhost:6379" style="text;html=1;align=center;verticalAlign=middle;resizable=0;points=[];autosize=1;strokeColor=none;fillColor=none;" vertex="1" parent="1">
          <mxGeometry x="400" y="550" width="100" height="30" as="geometry" />
        </mxCell>
        <mxCell id="TTnHmVoRhx6P__JuJ32r-132" value="localhost:6379" style="text;html=1;align=center;verticalAlign=middle;resizable=0;points=[];autosize=1;strokeColor=none;fillColor=none;" vertex="1" parent="1">
          <mxGeometry x="270" y="490" width="100" height="30" as="geometry" />
        </mxCell>
        <mxCell id="TTnHmVoRhx6P__JuJ32r-133" value="postgres-db" style="shape=cylinder3;whiteSpace=wrap;html=1;boundedLbl=1;backgroundOutline=1;size=15;fillColor=#dae8fc;strokeColor=#6c8ebf;" vertex="1" parent="1">
          <mxGeometry x="610" y="810" width="60" height="80" as="geometry" />
        </mxCell>
        <mxCell id="TTnHmVoRhx6P__JuJ32r-136" value="localhost:5432/device" style="text;html=1;align=center;verticalAlign=middle;resizable=0;points=[];autosize=1;strokeColor=none;fillColor=none;" vertex="1" parent="1">
          <mxGeometry x="640" y="780" width="140" height="30" as="geometry" />
        </mxCell>
      </root>
    </mxGraphModel>
  </diagram>
</mxfile>
